PathFileType	4	(X/Y/Z)	..\data\SUBJ01\dynamic\walk.trc
DataRate	CameraRate	NumFrames	NumMarkers	Units	OrigDataRate	OrigDataStartFrame	OrigNumFrames
100.000000	100.000000	7	21	mm	100.000000	0	337
Frame#	Time	C7			T10			CLAV			STRN			LSHO			RSHO			LASI			RASI			SACR			LTHI			LKNE			LTIB			LANK			LHEE			LTOE			RTHI			RKNE			RTIB			RANK			RHEE			RTOE			
		X1	Y1	Z1	X2	Y2	Z2	X3	Y3	Z3	X4	Y4	Z4	X5	Y5	Z5	X6	Y6	Z6	X7	Y7	Z7	X8	Y8	Z8	X9	Y9	Z9	X10	Y10	Z10	X11	Y11	Z11	X12	Y12	Z12	X13	Y13	Z13	X14	Y14	Z14	X15	Y15	Z15	X16	Y16	Z16	X17	Y17	Z17	X18	Y18	Z18	X19	Y19	Z19	X20	Y20	Z20	X21	Y21	Z21	

1	0.9500000000000001	-129.4813385009766	1337.663696289063	22.04595035062721	-195.5848541259766	1117.616943359375	22.04595035062721	17.91757011413575	1237.19287109375	21.95847742216747	75.47271728515626	1080.327270507813	22.04595035062721	-85.65545654296876	1293.868896484375	-152.0801736032232	-48.85242080688478	1273.9921875	192.0803046712631	3.275251865386964	841.4490966796877	-120.859251464656	-19.97472381591797	846.6810302734377	160.859251464656	-184.409164428711	859.8157958984377	20	-22.09526443481446	569.3645019531251	-196.594804781495	75.6810760498047	424.6727294921876	-109.6938565403288	122.8345489501953	190.1358642578125	-159.4973066312762	186.7161865234375	70.30086517333986	-111.7562165806763	134.3455200195313	42.46198654174805	-65.58032746445977	295.4572143554688	80.26190185546876	-74.43897087404167	-118.3491821289063	565.3444824218751	213.5914694104505	-163.9295806884766	394.2553100585939	149.1302321308147	-269.1392517089844	179.2548065185547	196.2680469139518	-341.3928527832032	81.65200805664064	152.8880051473318	-396.4866027832032	90.43795013427736	105.7255595369172	-238.2061920166016	45.59505081176759	114.6938823150058	
2	0.96	-117.3827667236328	1336.90380859375	22.04595035062721	-183.7262268066407	1116.987182617188	22.04595035062721	29.84144401550294	1236.249267578125	21.95847742216747	87.41320800781251	1079.3427734375	22.04595035062721	-74.11834716796876	1292.732055664063	-152.0801736032232	-36.48957824707032	1272.855224609375	192.0803046712631	14.35317134857178	841.1007080078127	-120.859251464656	-7.455630302429201	845.195495605469	160.859251464656	-172.7771759033203	859.0954589843752	20	-8.717151641845705	569.6533203125001	-196.594804781495	87.7723846435547	424.6773681640626	-109.6938565403288	129.6513061523438	189.3793182373047	-159.4973066312762	190.2210998535157	68.44577789306642	-111.7562165806763	137.0411529541016	43.01450347900391	-65.58032746445977	299.0932006835938	74.76888275146486	-74.43897087404167	-106.1259460449219	563.8166503906251	213.5914694104505	-152.3786926269532	393.3170471191407	149.1302321308147	-263.5125122070313	181.2270812988282	196.2680469139518	-338.8615722656251	85.60824584960939	152.8880051473318	-393.6292724609376	96.4185485839844	105.7255595369172	-237.5096740722657	45.57341384887696	114.6938823150058	
3	0.97	-105.2066040039063	1336.5107421875	22.04595035062721	-171.831527709961	1116.704345703125	22.04595035062721	41.83123016357423	1235.6650390625	21.95847742216747	99.4189147949219	1078.728515625	22.04595035062721	-62.48026275634767	1291.966064453125	-152.0801736032232	-23.99714279174805	1272.108276367188	192.0803046712631	25.47606277465821	841.255798339844	-120.859251464656	5.132109165191651	844.0510253906252	160.859251464656	-161.109130859375	858.676452636719	20	5.024706363677979	570.5496215820314	-196.594804781495	99.64717864990237	424.9105834960939	-109.6938565403288	136.2408447265625	188.8566131591797	-159.4973066312762	193.0520019531251	66.79432678222658	-111.7562165806763	138.9939727783203	43.69978713989259	-65.58032746445977	301.9936218261719	69.44374084472658	-74.43897087404167	-93.27491760253908	562.4119873046876	213.5914694104505	-139.7671051025391	392.4460449218751	149.1302321308147	-257.0780334472657	183.7685546875	196.2680469139518	-335.6246032714844	90.28990173339845	152.8880051473318	-389.8079223632814	103.3632278442383	105.7255595369172	-236.6117401123047	45.5992660522461	114.6938823150058	
4	0.98	-92.98317718505861	1336.481079101563	22.04595035062721	-159.9203643798828	1116.759765625	22.04595035062721	53.86481857299806	1235.445068359375	21.95847742216747	111.463623046875	1078.48876953125	22.04595035062721	-50.74209213256837	1291.588623046875	-152.0801736032232	-11.40824604034424	1271.768310546875	192.0803046712631	36.63806915283204	841.9093017578127	-120.859251464656	17.74630355834961	843.255798339844	160.859251464656	-149.4228515625	858.5545043945315	20	18.83823394775391	571.9225463867189	-196.594804781495	111.1772079467774	425.3165588378907	-109.6938565403288	142.6374969482422	188.5321655273438	-159.4973066312762	195.3733367919922	65.40477752685548	-111.7562165806763	140.4331359863282	44.46709442138673	-65.58032746445977	304.3193664550782	64.53845977783205	-74.43897087404167	-79.75997161865236	561.1362304687501	213.5914694104505	-126.0188369750977	391.6144409179689	149.1302321308147	-249.7228393554688	186.9206695556641	196.2680469139518	-331.5430908203126	95.75415039062501	152.8880051473318	-384.824188232422	111.2939453125	105.7255595369172	-235.4401855468751	45.73985671997071	114.6938823150058	
5	0.99	-80.74645996093751	1336.7939453125	22.04595035062721	-148.0132904052735	1117.131225585938	22.04595035062721	65.9174270629883	1235.576782226563	21.95847742216747	123.5178604125977	1078.608520507813	22.04595035062721	-38.90895462036134	1291.60009765625	-152.0801736032232	1.236677050590515	1271.82861328125	192.0803046712631	47.82951736450196	843.0291137695315	-120.859251464656	30.34071731567384	842.798278808594	160.859251464656	-137.7391662597657	858.7137451171877	20	32.46451950073243	573.6230468750001	-196.594804781495	122.2434539794922	425.8337402343751	-109.6938565403288	148.8194885253907	188.3578033447266	-159.4973066312762	197.2972869873047	64.29872131347658	-111.7562165806763	141.5233154296875	45.26092910766602	-65.58032746445977	306.1846008300782	60.23019027709962	-74.43897087404167	-65.56475830078126	559.9934692382814	213.5914694104505	-111.0810699462891	390.7946166992189	149.1302321308147	-241.3388366699219	190.7030181884766	196.2680469139518	-326.4789123535157	102.0380554199219	152.8880051473318	-378.4943237304688	120.1879959106446	105.7255595369172	-233.8927001953126	46.09191513061524	114.6938823150058	
6	1	-68.53137969970705	1337.414428710938	22.04595035062721	-136.1313171386719	1117.785766601563	22.04595035062721	77.96287536621095	1236.032592773438	21.95847742216747	135.5505981445313	1079.05615234375	22.04595035062721	-26.99107360839844	1291.984130859375	-152.0801736032232	13.8914852142334	1272.258056640625	192.0803046712631	59.03707885742189	844.5600585937502	-120.859251464656	42.86664962768555	842.648864746094	160.859251464656	-126.0816345214844	859.129089355469	20	45.68870925903321	575.5035400390626	-196.594804781495	132.7421875	426.4011230468751	-109.6938565403288	154.725082397461	188.2827911376953	-159.4973066312762	198.8972320556641	63.46657943725587	-111.7562165806763	142.3744506835938	46.02984237670899	-65.58032746445977	307.6704406738282	56.61639404296876	-74.43897087404167	-50.69820022583009	558.9893798828126	213.5914694104505	-94.9254608154297	389.9663696289064	149.1302321308147	-231.8282623291016	195.1082305908204	196.2680469139518	-320.3013305664063	109.1488800048828	152.8880051473318	-370.6650085449219	129.9715423583985	105.7255595369172	-231.8299102783204	46.77753448486329	114.6938823150058	
7	1.01	-56.37094116210939	1338.297607421875	22.04595035062721	-124.2955856323242	1118.68408203125	22.04595035062721	89.9748992919922	1236.77294921875	21.95847742216747	147.530990600586	1079.78662109375	22.04595035062721	-15.00394248962403	1292.70947265625	-152.0801736032232	26.50672149658204	1273.004638671875	192.0803046712631	70.24407196044923	846.4296875000002	-120.859251464656	55.27538681030275	842.7650146484377	160.859251464656	-114.4759292602539	859.7692871093752	20	58.34469985961915	577.4328613281251	-196.594804781495	142.5925750732422	426.9648437500001	-109.6938565403288	160.2739410400391	188.2618408203125	-159.4973066312762	200.2214660644532	62.8763999938965	-111.7562165806763	143.0550231933594	46.73329162597657	-65.58032746445977	308.8378295898438	53.72084426879884	-74.43897087404167	-35.19941711425782	558.1351928710939	213.5914694104505	-77.54943847656251	389.1243591308595	149.1302321308147	-221.1096649169922	200.0989990234376	196.2680469139518	-312.8929443359376	117.0548324584961	152.8880051473318	-361.2273254394532	140.5169372558594	105.7255595369172	-229.0714721679688	47.93353652954102	114.6938823150058	
